<svg data-v-fde0c5aa="" xmlns="http://www.w3.org/2000/svg" viewBox="0 0 300 300" class="font"><!----><defs data-v-fde0c5aa=""><!----></defs><rect data-v-fde0c5aa="" fill="#132554" x="0" y="0" width="300px" height="300px" class="logo-background-square"></rect><defs data-v-fde0c5aa=""><!----></defs><g data-v-fde0c5aa="" id="824c5cb6-da94-4d1d-9b28-bafedd2cf3a1" fill="#00A3DD" transform="matrix(1.691266888862222,0,0,1.691266888862222,39.28966787845181,134.55027738960223)"><path d="M0.42 14.43L0.42 14.43L0.42 14.01Q0.42 13.80 0.63 13.80L0.63 13.80Q1.12 13.80 1.39 13.43Q1.66 13.06 1.67 12.47L1.67 12.47L1.67 5.20Q1.30 4.98 0.79 4.98L0.79 4.98Q0.58 4.98 0.58 4.77L0.58 4.77L0.58 4.35Q0.58 4.14 0.79 4.14L0.79 4.14L3.42 4.14Q3.57 4.14 3.68 4.27L3.68 4.27L7.25 11.48L10.82 4.27Q10.94 4.14 11.08 4.14L11.08 4.14L13.71 4.14Q13.92 4.14 13.92 4.35L13.92 4.35L13.92 4.77Q13.92 4.98 13.71 4.98L13.71 4.98Q13.21 4.98 12.84 5.20L12.84 5.20L12.84 12.47Q12.84 13.06 13.11 13.43Q13.38 13.80 13.87 13.80L13.87 13.80Q14.08 13.80 14.08 14.01L14.08 14.01L14.08 14.43Q14.08 14.64 13.87 14.64L13.87 14.64L10.42 14.64Q10.21 14.64 10.21 14.43L10.21 14.43L10.21 14.01Q10.21 13.80 10.42 13.80L10.42 13.80Q10.91 13.80 11.17 13.43Q11.44 13.06 11.44 12.47L11.44 12.47L11.44 7.16L8.14 13.86Q8.07 14.01 7.90 14.01L7.90 14.01L6.61 14.01Q6.44 14.01 6.36 13.86L6.36 13.86L3.07 7.16L3.07 12.47Q3.07 13.06 3.33 13.43Q3.59 13.80 4.08 13.80L4.08 13.80Q4.29 13.80 4.29 14.01L4.29 14.01L4.29 14.43Q4.29 14.64 4.08 14.64L4.08 14.64L0.63 14.64Q0.42 14.64 0.42 14.43ZM13.94 8.28L13.94 8.28L13.94 7.85Q13.94 7.65 14.15 7.65L14.15 7.65L14.18 7.64L17.00 7.64Q17.21 7.64 17.21 7.85L17.21 7.85L17.21 11.93Q17.21 11.97 17.21 12.04L17.21 12.04Q17.21 12.26 17.21 12.37Q17.21 12.48 17.23 12.67Q17.25 12.87 17.28 12.97Q17.32 13.07 17.39 13.21Q17.47 13.34 17.57 13.42Q17.68 13.49 17.84 13.54Q18.01 13.59 18.22 13.59L18.22 13.59Q18.72 13.59 19.23 13.22Q19.74 12.86 19.92 12.40L19.92 12.40L19.92 9.82Q19.92 9.22 19.65 8.85Q19.39 8.48 18.89 8.48L18.89 8.48L18.86 8.48Q18.66 8.48 18.66 8.28L18.66 8.28L18.66 7.85Q18.66 7.66 18.87 7.64L18.87 7.64L21.68 7.64Q21.89 7.64 21.89 7.85L21.89 7.85L21.89 11.81Q21.89 12.15 21.91 12.37Q21.94 12.60 22.01 12.85Q22.09 13.10 22.26 13.25Q22.44 13.39 22.72 13.42L22.72 13.42Q22.89 13.44 22.88 13.60L22.88 13.60L22.88 14.08Q22.88 14.26 22.67 14.26L22.67 14.26Q22.03 14.26 21.51 14.35Q20.99 14.44 20.77 14.53Q20.54 14.61 20.10 14.80L20.10 14.80Q20.05 14.83 19.99 14.83L19.99 14.83L19.95 14.83Q19.93 14.83 19.93 14.78L19.93 14.78L20.15 13.02Q20.00 13.34 19.77 13.63Q19.54 13.93 19.23 14.21Q18.92 14.49 18.50 14.66Q18.08 14.83 17.62 14.83L17.62 14.83Q17.04 14.83 16.61 14.67Q16.17 14.51 15.92 14.27Q15.66 14.02 15.51 13.65Q15.35 13.29 15.30 12.93Q15.24 12.56 15.24 12.13L15.24 12.13L15.24 9.82Q15.24 9.22 14.98 8.85Q14.71 8.48 14.21 8.48L14.21 8.48L14.15 8.48Q13.94 8.48 13.94 8.28ZM23.37 14.43L23.37 14.43L23.37 14.01Q23.37 13.80 23.58 13.80L23.58 13.80L23.61 13.80Q24.11 13.79 24.38 13.43L24.38 13.43Q24.63 13.07 24.63 12.52L24.63 12.52Q24.63 12.50 24.63 12.47L24.63 12.47L24.63 7.23Q24.63 6.88 24.61 6.66Q24.58 6.43 24.50 6.18Q24.42 5.93 24.25 5.78Q24.07 5.64 23.80 5.61L23.80 5.61Q23.62 5.59 23.63 5.43L23.63 5.43L23.63 4.96Q23.63 4.87 23.68 4.84Q23.72 4.81 23.84 4.77L23.84 4.77Q25.40 4.25 26.47 3.47L26.47 3.47Q26.51 3.45 26.53 3.45L26.53 3.45L26.56 3.45Q26.58 3.45 26.58 3.47L26.58 3.47L26.58 8.85Q26.68 8.63 26.87 8.42Q27.06 8.20 27.34 7.97Q27.62 7.75 28.03 7.60Q28.44 7.46 28.90 7.46L28.90 7.46Q29.48 7.46 29.91 7.60Q30.34 7.75 30.60 7.97Q30.86 8.20 31.01 8.54Q31.17 8.89 31.22 9.24Q31.27 9.58 31.27 10.02L31.27 10.02L31.27 12.47Q31.27 13.06 31.54 13.43Q31.81 13.80 32.31 13.80L32.31 13.80L32.34 13.80Q32.55 13.80 32.55 14.01L32.55 14.01L32.55 14.43Q32.55 14.64 32.34 14.64L32.34 14.64L28.54 14.64Q28.33 14.64 28.33 14.43L28.33 14.43L28.33 14.01Q28.33 13.80 28.54 13.80L28.54 13.80L28.57 13.80Q28.96 13.81 29.13 13.44L29.13 13.44Q29.31 13.10 29.31 12.55L29.31 12.55Q29.31 12.51 29.31 12.47L29.31 12.47L29.31 10.36Q29.31 10.32 29.31 10.23L29.31 10.23Q29.31 9.95 29.30 9.81Q29.30 9.68 29.27 9.46Q29.24 9.24 29.18 9.14Q29.12 9.03 29.01 8.91Q28.90 8.79 28.72 8.74Q28.54 8.70 28.29 8.70L28.29 8.70Q27.77 8.70 27.27 9.00Q26.77 9.31 26.59 9.75L26.59 9.75L26.59 12.47Q26.59 13.06 26.86 13.43Q27.13 13.80 27.62 13.80L27.62 13.80L27.65 13.80Q27.86 13.80 27.86 14.01L27.86 14.01L27.86 14.43Q27.86 14.64 27.65 14.64L27.65 14.64L23.58 14.64Q23.37 14.64 23.37 14.43ZM32.56 11.13L32.56 11.13Q32.56 10.19 32.83 9.47Q33.10 8.75 33.56 8.32Q34.03 7.90 34.60 7.68Q35.18 7.46 35.83 7.46L35.83 7.46Q37.21 7.46 38.10 8.28L38.10 8.28Q38.27 8.21 38.41 8.15Q38.55 8.08 38.67 8.01Q38.80 7.94 38.88 7.90Q38.96 7.85 39.07 7.78Q39.18 7.71 39.22 7.69Q39.26 7.66 39.37 7.58Q39.48 7.50 39.49 7.49L39.49 7.49Q39.53 7.46 39.55 7.46L39.55 7.46L39.59 7.46Q39.60 7.46 39.60 7.49L39.60 7.49L39.60 12.05Q39.61 12.34 39.64 12.54Q39.68 12.75 39.76 12.95Q39.85 13.15 40.01 13.27Q40.18 13.39 40.43 13.42L40.43 13.42Q40.61 13.44 40.59 13.60L40.59 13.60L40.59 14.08Q40.59 14.26 40.39 14.26L40.39 14.26Q39.74 14.26 39.23 14.35Q38.71 14.44 38.47 14.53Q38.23 14.62 37.81 14.80L37.81 14.80Q37.75 14.83 37.69 14.83L37.69 14.83L37.66 14.83Q37.64 14.83 37.64 14.78L37.64 14.78L37.80 13.54Q37.73 13.72 37.60 13.90Q37.47 14.09 37.23 14.31Q36.98 14.54 36.58 14.68Q36.17 14.83 35.66 14.83L35.66 14.83Q35.27 14.83 34.85 14.71Q34.44 14.59 34.02 14.30Q33.61 14.01 33.28 13.60Q32.96 13.19 32.76 12.55Q32.56 11.91 32.56 11.13ZM34.36 10.68L34.36 10.68Q34.36 12.01 34.90 12.80Q35.43 13.59 36.30 13.59L36.30 13.59Q36.59 13.59 36.84 13.49Q37.08 13.40 37.22 13.27Q37.37 13.13 37.47 13.00Q37.57 12.86 37.61 12.76L37.61 12.76L37.65 12.67L37.65 9.86Q37.60 9.61 37.51 9.39Q37.41 9.16 37.24 8.92Q37.07 8.68 36.77 8.54Q36.48 8.39 36.09 8.39Q35.70 8.39 35.39 8.52Q35.08 8.65 34.89 8.87Q34.71 9.08 34.58 9.38Q34.46 9.68 34.41 9.99Q34.36 10.31 34.36 10.68ZM41.19 14.43L41.19 14.43L41.19 14.01Q41.19 13.80 41.39 13.80L41.39 13.80L41.43 13.80Q41.92 13.80 42.18 13.43Q42.44 13.06 42.44 12.47L42.44 12.47L42.44 10.71Q42.44 10.37 42.41 10.14Q42.39 9.92 42.31 9.67Q42.24 9.41 42.06 9.27Q41.88 9.13 41.61 9.10L41.61 9.10Q41.43 9.08 41.45 8.92L41.45 8.92L41.45 8.44Q41.45 8.29 41.65 8.26L41.65 8.26Q42.55 8.11 43.30 7.81Q44.06 7.51 44.42 7.24L44.42 7.24Q44.47 7.21 44.48 7.21L44.48 7.21L44.52 7.21Q44.53 7.21 44.53 7.23L44.53 7.23L44.28 9.06Q45.29 7.46 46.70 7.46L46.70 7.46Q48.51 7.46 48.93 8.83L48.93 8.83Q49.98 7.46 51.50 7.46L51.50 7.46Q52.08 7.46 52.52 7.62Q52.95 7.77 53.21 8.02Q53.46 8.27 53.62 8.64Q53.77 9.00 53.83 9.37Q53.88 9.73 53.88 10.17L53.88 10.17L53.88 12.47Q53.88 13.06 54.15 13.43Q54.41 13.80 54.91 13.80L54.91 13.80L55.05 13.80Q55.26 13.80 55.26 14.01L55.26 14.01L55.26 14.43Q55.26 14.64 55.05 14.64L55.05 14.64L51.11 14.64Q50.90 14.64 50.90 14.43L50.90 14.43L50.90 14.01Q50.90 13.80 51.11 13.80L51.11 13.80L51.18 13.80Q51.60 13.80 51.76 13.49Q51.91 13.18 51.91 12.47L51.91 12.47L51.91 10.36Q51.91 10.32 51.91 10.23L51.91 10.23Q51.91 9.99 51.91 9.86Q51.91 9.73 51.88 9.51Q51.86 9.30 51.79 9.18Q51.73 9.06 51.62 8.94Q51.52 8.81 51.33 8.75Q51.15 8.70 50.91 8.70L50.91 8.70Q50.33 8.70 49.87 9.05Q49.40 9.41 49.09 10.02L49.09 10.02L49.09 12.47Q49.09 13.21 49.31 13.50Q49.54 13.80 49.98 13.80L49.98 13.80L50.09 13.80Q50.29 13.80 50.29 14.01L50.29 14.01L50.29 14.43Q50.29 14.64 50.09 14.64L50.09 14.64L46.29 14.64Q46.07 14.64 46.07 14.43L46.07 14.43L46.07 14.01Q46.07 13.80 46.29 13.80L46.29 13.80L46.38 13.80Q46.72 13.80 46.92 13.49L46.92 13.49Q47.12 13.19 47.12 12.52L47.12 12.52Q47.12 12.50 47.12 12.47L47.12 12.47L47.12 10.36Q47.12 10.32 47.12 10.23L47.12 10.23Q47.12 9.95 47.12 9.81Q47.11 9.68 47.09 9.46Q47.06 9.24 47.00 9.14Q46.94 9.03 46.83 8.91Q46.72 8.79 46.54 8.74Q46.35 8.70 46.11 8.70L46.11 8.70Q45.60 8.70 45.10 9.06Q44.59 9.43 44.41 9.89L44.41 9.89L44.41 12.47Q44.41 13.05 44.65 13.43Q44.89 13.80 45.29 13.80L45.29 13.80L45.34 13.80Q45.54 13.80 45.54 14.01L45.54 14.01L45.54 14.43Q45.54 14.64 45.34 14.64L45.34 14.64L41.39 14.64Q41.19 14.64 41.19 14.43ZM55.83 14.43L55.83 14.43L55.83 14.01Q55.83 13.80 56.03 13.80L56.03 13.80L56.07 13.80Q56.56 13.80 56.82 13.43Q57.08 13.06 57.08 12.47L57.08 12.47L57.08 10.71Q57.08 10.37 57.06 10.14Q57.03 9.92 56.96 9.67Q56.88 9.41 56.70 9.27Q56.53 9.13 56.25 9.10L56.25 9.10Q56.08 9.08 56.09 8.92L56.09 8.92L56.09 8.44Q56.09 8.29 56.29 8.26L56.29 8.26Q57.19 8.11 57.94 7.81Q58.70 7.51 59.06 7.24L59.06 7.24Q59.12 7.21 59.12 7.21L59.12 7.21L59.16 7.21Q59.17 7.21 59.17 7.23L59.17 7.23L58.93 9.06Q59.93 7.46 61.35 7.46L61.35 7.46Q63.15 7.46 63.57 8.83L63.57 8.83Q64.63 7.46 66.14 7.46L66.14 7.46Q66.73 7.46 67.16 7.62Q67.59 7.77 67.85 8.02Q68.11 8.27 68.26 8.64Q68.41 9.00 68.47 9.37Q68.52 9.73 68.52 10.17L68.52 10.17L68.52 12.47Q68.52 13.06 68.79 13.43Q69.06 13.80 69.56 13.80L69.56 13.80L69.69 13.80Q69.90 13.80 69.90 14.01L69.90 14.01L69.90 14.43Q69.90 14.64 69.69 14.64L69.69 14.64L65.75 14.64Q65.54 14.64 65.54 14.43L65.54 14.43L65.54 14.01Q65.54 13.80 65.75 13.80L65.75 13.80L65.82 13.80Q66.25 13.80 66.40 13.49Q66.55 13.18 66.55 12.47L66.55 12.47L66.55 10.36Q66.55 10.32 66.55 10.23L66.55 10.23Q66.55 9.99 66.55 9.86Q66.55 9.73 66.52 9.51Q66.50 9.30 66.44 9.18Q66.37 9.06 66.26 8.94Q66.16 8.81 65.98 8.75Q65.80 8.70 65.55 8.70L65.55 8.70Q64.98 8.70 64.51 9.05Q64.05 9.41 63.73 10.02L63.73 10.02L63.73 12.47Q63.73 13.21 63.96 13.50Q64.18 13.80 64.62 13.80L64.62 13.80L64.73 13.80Q64.93 13.80 64.93 14.01L64.93 14.01L64.93 14.43Q64.93 14.64 64.73 14.64L64.73 14.64L60.93 14.64Q60.72 14.64 60.72 14.43L60.72 14.43L60.72 14.01Q60.72 13.80 60.93 13.80L60.93 13.80L61.02 13.80Q61.36 13.80 61.56 13.49L61.56 13.49Q61.76 13.19 61.76 12.52L61.76 12.52Q61.76 12.50 61.76 12.47L61.76 12.47L61.76 10.36Q61.76 10.32 61.76 10.23L61.76 10.23Q61.76 9.95 61.76 9.81Q61.76 9.68 61.73 9.46Q61.70 9.24 61.64 9.14Q61.58 9.03 61.47 8.91Q61.36 8.79 61.18 8.74Q61.00 8.70 60.75 8.70L60.75 8.70Q60.25 8.70 59.74 9.06Q59.23 9.43 59.05 9.89L59.05 9.89L59.05 12.47Q59.05 13.05 59.29 13.43Q59.53 13.80 59.94 13.80L59.94 13.80L59.98 13.80Q60.18 13.80 60.18 14.01L60.18 14.01L60.18 14.43Q60.18 14.64 59.98 14.64L59.98 14.64L56.03 14.64Q55.83 14.64 55.83 14.43ZM69.92 11.13L69.92 11.13Q69.92 10.19 70.19 9.47Q70.46 8.75 70.92 8.32Q71.39 7.90 71.96 7.68Q72.54 7.46 73.19 7.46L73.19 7.46Q74.57 7.46 75.46 8.28L75.46 8.28Q75.63 8.21 75.77 8.15Q75.91 8.08 76.03 8.01Q76.16 7.94 76.24 7.90Q76.32 7.85 76.43 7.78Q76.54 7.71 76.58 7.69Q76.62 7.66 76.73 7.58Q76.84 7.50 76.85 7.49L76.85 7.49Q76.89 7.46 76.91 7.46L76.91 7.46L76.95 7.46Q76.96 7.46 76.96 7.49L76.96 7.49L76.96 12.05Q76.97 12.34 77 12.54Q77.03 12.75 77.12 12.95Q77.21 13.15 77.37 13.27Q77.54 13.39 77.79 13.42L77.79 13.42Q77.96 13.44 77.95 13.60L77.95 13.60L77.95 14.08Q77.95 14.26 77.75 14.26L77.75 14.26Q77.10 14.26 76.59 14.35Q76.07 14.44 75.83 14.53Q75.58 14.62 75.17 14.80L75.17 14.80Q75.11 14.83 75.05 14.83L75.05 14.83L75.02 14.83Q75.00 14.83 75.00 14.78L75.00 14.78L75.16 13.54Q75.09 13.72 74.96 13.90Q74.83 14.09 74.58 14.31Q74.34 14.54 73.93 14.68Q73.53 14.83 73.02 14.83L73.02 14.83Q72.63 14.83 72.21 14.71Q71.80 14.59 71.38 14.30Q70.96 14.01 70.64 13.60Q70.32 13.19 70.12 12.55Q69.92 11.91 69.92 11.13ZM71.72 10.68L71.72 10.68Q71.72 12.01 72.26 12.80Q72.79 13.59 73.66 13.59L73.66 13.59Q73.95 13.59 74.19 13.49Q74.44 13.40 74.58 13.27Q74.72 13.13 74.83 13.00Q74.93 12.86 74.97 12.76L74.97 12.76L75.00 12.67L75.00 9.86Q74.96 9.61 74.86 9.39Q74.77 9.16 74.60 8.92Q74.43 8.68 74.13 8.54Q73.83 8.39 73.45 8.39Q73.06 8.39 72.75 8.52Q72.44 8.65 72.25 8.87Q72.06 9.08 71.94 9.38Q71.82 9.68 71.77 9.99Q71.72 10.31 71.72 10.68ZM78.26 11.13L78.26 11.13Q78.26 10.19 78.53 9.47Q78.80 8.75 79.26 8.32Q79.73 7.90 80.30 7.68Q80.88 7.46 81.53 7.46L81.53 7.46Q82.60 7.46 83.35 8.11L83.35 8.11L83.35 7.23Q83.35 6.88 83.33 6.66Q83.30 6.43 83.22 6.18Q83.15 5.93 82.97 5.78Q82.79 5.64 82.52 5.61L82.52 5.61Q82.34 5.59 82.35 5.43L82.35 5.43L82.35 4.96Q82.35 4.87 82.40 4.84Q82.44 4.81 82.56 4.77L82.56 4.77Q84.12 4.25 85.19 3.47L85.19 3.47Q85.23 3.45 85.25 3.45L85.25 3.45L85.29 3.45Q85.30 3.45 85.30 3.47L85.30 3.47L85.30 12.05Q85.31 12.34 85.34 12.54Q85.37 12.75 85.46 12.95Q85.54 13.15 85.71 13.27Q85.88 13.39 86.13 13.42L86.13 13.42Q86.30 13.44 86.29 13.60L86.29 13.60L86.29 14.08Q86.29 14.26 86.09 14.26L86.09 14.26Q85.45 14.26 84.93 14.35Q84.41 14.44 84.18 14.53Q83.95 14.61 83.51 14.80L83.51 14.80Q83.46 14.83 83.39 14.83L83.39 14.83L83.36 14.83Q83.33 14.83 83.34 14.78L83.34 14.78L83.50 13.54Q83.43 13.72 83.30 13.90Q83.17 14.09 82.92 14.31Q82.68 14.54 82.27 14.68Q81.87 14.83 81.36 14.83L81.36 14.83Q80.96 14.83 80.55 14.71Q80.14 14.59 79.72 14.30Q79.30 14.01 78.98 13.60Q78.66 13.19 78.46 12.55Q78.26 11.91 78.26 11.13ZM80.06 10.68L80.06 10.68Q80.06 12.01 80.60 12.80Q81.13 13.59 82.00 13.59L82.00 13.59Q82.29 13.59 82.53 13.47Q82.78 13.34 82.92 13.17Q83.06 13.00 83.17 12.83Q83.27 12.65 83.31 12.53L83.31 12.53L83.34 12.41L83.34 10.11Q83.26 9.42 82.86 8.98Q82.46 8.53 81.79 8.53L81.79 8.53Q80.06 8.53 80.06 10.68ZM90.08 14.43L90.08 14.43L90.08 14.01Q90.08 13.80 90.30 13.80L90.30 13.80Q90.40 13.80 90.48 13.78Q90.57 13.77 90.64 13.71Q90.72 13.66 90.78 13.62Q90.84 13.58 90.90 13.48Q90.96 13.38 90.99 13.33Q91.03 13.28 91.09 13.14Q91.14 13.00 91.17 12.94Q91.19 12.88 91.26 12.70Q91.32 12.53 91.34 12.47L91.34 12.47L94.36 4.32Q94.42 4.15 94.60 4.15L94.60 4.15L96.28 4.15Q96.47 4.15 96.52 4.31L96.52 4.31L99.68 12.47Q99.71 12.53 99.77 12.70Q99.83 12.87 99.86 12.93Q99.88 12.99 99.94 13.13Q100.00 13.26 100.03 13.32Q100.07 13.38 100.13 13.48Q100.19 13.58 100.25 13.62Q100.30 13.66 100.38 13.71Q100.45 13.76 100.53 13.78Q100.62 13.80 100.71 13.80L100.71 13.80Q100.92 13.80 100.92 14.01L100.92 14.01L100.92 14.43Q100.92 14.64 100.71 14.64L100.71 14.64L96.42 14.64Q96.21 14.64 96.21 14.43L96.21 14.43L96.21 14.01Q96.21 13.80 96.42 13.80L96.42 13.80Q96.86 13.80 97.18 13.53Q97.50 13.25 97.50 12.84L97.50 12.84Q97.50 12.65 97.43 12.47L97.43 12.47L97.00 11.29L93.17 11.29L92.75 12.47Q92.69 12.65 92.69 12.82L92.69 12.82Q92.69 13.23 93.01 13.52Q93.34 13.80 93.78 13.80L93.78 13.80Q93.99 13.80 93.99 14.01L93.99 14.01L93.99 14.43Q93.99 14.64 93.78 14.64L93.78 14.64L90.30 14.64Q90.08 14.64 90.08 14.43ZM95.04 5.97L93.59 10.07L96.55 10.07L95.04 5.97ZM101.56 14.43L101.56 14.43L101.56 14.01Q101.56 13.80 101.77 13.80L101.77 13.80Q102.27 13.80 102.54 13.43L102.54 13.43Q102.79 13.08 102.79 12.53L102.79 12.53Q102.79 12.50 102.79 12.47L102.79 12.47L102.79 10.08Q102.79 9.86 102.78 9.74Q102.78 9.63 102.76 9.43Q102.74 9.24 102.71 9.13Q102.67 9.02 102.60 8.88Q102.53 8.74 102.42 8.66Q102.31 8.59 102.15 8.54Q101.99 8.48 101.77 8.48Q101.56 8.48 101.56 8.27L101.56 8.27L101.56 7.85Q101.56 7.64 101.77 7.64L101.77 7.64L102.81 7.64L102.81 7.53Q102.81 6.99 102.89 6.46Q102.98 5.93 103.22 5.37Q103.45 4.82 103.79 4.40Q104.14 3.98 104.70 3.71Q105.27 3.44 105.97 3.44L105.97 3.44Q107.04 3.44 107.61 3.85Q108.18 4.27 108.18 4.93L108.18 4.93Q108.18 5.25 108.03 5.63L108.03 5.63Q107.95 5.83 107.68 5.89L107.68 5.89L106.21 6.22L106.18 6.23Q106.09 6.23 106.08 6.13Q106.06 6.04 106.11 5.94L106.11 5.94Q106.37 5.44 106.37 5.02L106.37 5.02Q106.37 4.64 106.18 4.42Q105.98 4.20 105.71 4.20L105.71 4.20Q105.38 4.20 105.12 4.52L105.12 4.52Q104.88 4.82 104.78 5.35Q104.69 5.88 104.68 6.73L104.68 6.73L104.68 7.64L106.55 7.64Q106.76 7.64 106.76 7.85L106.76 7.85L106.76 8.46Q106.76 8.67 106.55 8.67L106.55 8.67L104.69 8.67L104.69 12.47Q104.69 13.06 104.95 13.43Q105.22 13.80 105.71 13.80L105.71 13.80Q105.92 13.80 105.92 14.01L105.92 14.01L105.92 14.43Q105.92 14.64 105.71 14.64L105.71 14.64L101.77 14.64Q101.56 14.64 101.56 14.43ZM107.32 14.43L107.32 14.43L107.32 14.01Q107.32 13.80 107.54 13.80L107.54 13.80Q108.04 13.80 108.30 13.43L108.30 13.43Q108.55 13.08 108.55 12.53L108.55 12.53Q108.55 12.50 108.55 12.47L108.55 12.47L108.55 10.08Q108.55 9.86 108.54 9.74Q108.54 9.63 108.52 9.43Q108.51 9.24 108.47 9.13Q108.43 9.02 108.36 8.88Q108.29 8.74 108.18 8.66Q108.08 8.59 107.91 8.54Q107.75 8.48 107.54 8.48Q107.32 8.48 107.32 8.27L107.32 8.27L107.32 7.85Q107.32 7.64 107.54 7.64L107.54 7.64L108.58 7.64L108.57 7.53Q108.57 6.99 108.66 6.46Q108.75 5.93 108.98 5.37Q109.21 4.82 109.56 4.40Q109.90 3.98 110.47 3.71Q111.03 3.44 111.73 3.44L111.73 3.44Q112.81 3.44 113.37 3.85Q113.94 4.27 113.94 4.93L113.94 4.93Q113.94 5.25 113.79 5.63L113.79 5.63Q113.71 5.83 113.44 5.89L113.44 5.89L111.97 6.22L111.94 6.23Q111.86 6.23 111.84 6.13Q111.82 6.04 111.88 5.94L111.88 5.94Q112.14 5.44 112.14 5.02L112.14 5.02Q112.14 4.64 111.94 4.42Q111.75 4.20 111.47 4.20L111.47 4.20Q111.14 4.20 110.89 4.52L110.89 4.52Q110.65 4.82 110.55 5.35Q110.45 5.88 110.44 6.73L110.44 6.73L110.44 7.64L112.31 7.64Q112.53 7.64 112.53 7.85L112.53 7.85L112.53 8.46Q112.53 8.67 112.31 8.67L112.31 8.67L110.45 8.67L110.45 12.47Q110.45 13.06 110.71 13.43Q110.98 13.80 111.47 13.80L111.47 13.80Q111.69 13.80 111.69 14.01L111.69 14.01L111.69 14.43Q111.69 14.64 111.47 14.64L111.47 14.64L107.54 14.64Q107.32 14.64 107.32 14.43ZM112.67 11.13L112.67 11.13Q112.67 10.19 112.94 9.47Q113.21 8.75 113.67 8.32Q114.14 7.90 114.71 7.68Q115.29 7.46 115.94 7.46L115.94 7.46Q117.32 7.46 118.21 8.28L118.21 8.28Q118.38 8.21 118.52 8.15Q118.66 8.08 118.78 8.01Q118.91 7.94 118.99 7.90Q119.08 7.85 119.18 7.78Q119.29 7.71 119.33 7.69Q119.37 7.66 119.48 7.58Q119.59 7.50 119.60 7.49L119.60 7.49Q119.64 7.46 119.66 7.46L119.66 7.46L119.70 7.46Q119.71 7.46 119.71 7.49L119.71 7.49L119.71 12.05Q119.72 12.34 119.75 12.54Q119.79 12.75 119.87 12.95Q119.96 13.15 120.12 13.27Q120.29 13.39 120.54 13.42L120.54 13.42Q120.72 13.44 120.70 13.60L120.70 13.60L120.70 14.08Q120.70 14.26 120.50 14.26L120.50 14.26Q119.85 14.26 119.34 14.35Q118.82 14.44 118.58 14.53Q118.34 14.62 117.92 14.80L117.92 14.80Q117.87 14.83 117.80 14.83L117.80 14.83L117.77 14.83Q117.75 14.83 117.75 14.78L117.75 14.78L117.91 13.54Q117.84 13.72 117.71 13.90Q117.58 14.09 117.34 14.31Q117.09 14.54 116.69 14.68Q116.28 14.83 115.77 14.83L115.77 14.83Q115.38 14.83 114.96 14.71Q114.55 14.59 114.13 14.30Q113.72 14.01 113.39 13.60Q113.07 13.19 112.87 12.55Q112.67 11.91 112.67 11.13ZM114.47 10.68L114.47 10.68Q114.47 12.01 115.01 12.80Q115.54 13.59 116.41 13.59L116.41 13.59Q116.70 13.59 116.95 13.49Q117.19 13.40 117.33 13.27Q117.48 13.13 117.58 13.00Q117.68 12.86 117.72 12.76L117.72 12.76L117.76 12.67L117.76 9.86Q117.71 9.61 117.62 9.39Q117.52 9.16 117.35 8.92Q117.18 8.68 116.88 8.54Q116.59 8.39 116.20 8.39Q115.81 8.39 115.50 8.52Q115.19 8.65 115.00 8.87Q114.82 9.08 114.69 9.38Q114.57 9.68 114.52 9.99Q114.47 10.31 114.47 10.68ZM121.30 14.43L121.30 14.43L121.30 14.01Q121.30 13.80 121.50 13.80L121.50 13.80L121.54 13.80Q122.03 13.80 122.29 13.43Q122.55 13.06 122.55 12.47L122.55 12.47L122.55 10.71Q122.55 10.37 122.53 10.14Q122.51 9.92 122.43 9.67Q122.36 9.41 122.18 9.27Q122.00 9.13 121.73 9.10L121.73 9.10Q121.55 9.08 121.56 8.92L121.56 8.92L121.56 8.44Q121.56 8.29 121.76 8.26L121.76 8.26Q122.66 8.11 123.42 7.81Q124.17 7.50 124.54 7.24L124.54 7.24Q124.58 7.21 124.60 7.21L124.60 7.21L124.63 7.21Q124.65 7.21 124.65 7.23L124.65 7.23L124.40 9.06Q125.41 7.46 126.82 7.46L126.82 7.46Q127.40 7.46 127.84 7.62Q128.27 7.77 128.53 8.02Q128.78 8.27 128.94 8.64Q129.09 9.00 129.14 9.37Q129.20 9.73 129.20 10.17L129.20 10.17L129.20 12.47Q129.20 13.06 129.47 13.43Q129.73 13.80 130.23 13.80L130.23 13.80L130.29 13.80Q130.50 13.80 130.50 14.01L130.50 14.01L130.50 14.43Q130.50 14.64 130.29 14.64L130.29 14.64L126.49 14.64Q126.28 14.64 126.28 14.43L126.28 14.43L126.28 14.01Q126.28 13.80 126.50 13.80L126.50 13.80Q126.88 13.81 127.07 13.44L127.07 13.44Q127.24 13.10 127.24 12.55L127.24 12.55Q127.24 12.51 127.24 12.47L127.24 12.47L127.24 10.36Q127.24 10.32 127.24 10.25L127.24 10.25Q127.24 10.04 127.24 9.92Q127.24 9.81 127.22 9.62Q127.20 9.43 127.16 9.32Q127.13 9.21 127.05 9.08Q126.98 8.94 126.87 8.87Q126.77 8.80 126.60 8.75Q126.44 8.70 126.23 8.70L126.23 8.70Q125.72 8.70 125.21 9.06Q124.71 9.43 124.52 9.89L124.52 9.89L124.52 12.47Q124.52 13.06 124.79 13.43Q125.06 13.80 125.55 13.80L125.55 13.80L125.58 13.80Q125.79 13.80 125.79 14.01L125.79 14.01L125.79 14.43Q125.79 14.64 125.58 14.64L125.58 14.64L121.50 14.64Q121.30 14.64 121.30 14.43Z"></path></g><!----><!----></svg>